<?xml version="1.0" standalone="no"?>
<!DOCTYPE svg PUBLIC "-//W3C//DTD SVG 20010904//EN"
 "http://www.w3.org/TR/2001/REC-SVG-20010904/DTD/svg10.dtd">
<svg version="1.0" xmlns="http://www.w3.org/2000/svg"
 width="256.000000pt" height="256.000000pt" viewBox="0 0 256.000000 256.000000"
 preserveAspectRatio="xMidYMid meet">
<metadata>
Created by potrace 1.14, written by Peter Selinger 2001-2017
</metadata>
<g transform="translate(0.000000,256.000000) scale(0.100000,-0.100000)"
fill="#000000" stroke="none">
<path d="M1082 2254 c-79 -34 -157 -69 -175 -77 -18 -8 -135 -59 -262 -113
-249 -107 -294 -138 -314 -211 -7 -25 -11 -231 -11 -588 l0 -550 30 -51 c34
-60 54 -71 385 -215 116 -50 224 -97 240 -104 201 -91 228 -100 310 -99 77 1
86 3 255 78 96 43 254 112 350 153 277 119 305 137 338 218 10 23 12 167 10
597 l-3 566 -30 43 c-40 56 -31 52 -652 320 -283 122 -269 121 -471 33z m-442
-887 l0 -208 55 -25 c31 -13 58 -24 60 -24 3 0 5 63 5 139 l0 140 60 -27 59
-27 1 -63 0 -62 56 -25 c31 -14 58 -25 60 -25 2 0 4 42 4 94 l0 94 60 -26 60
-27 0 -57 0 -57 60 -27 60 -27 0 -403 0 -404 -27 11 c-15 6 -41 16 -58 24 -55
25 -660 287 -680 295 -11 4 -31 20 -45 35 l-25 27 -3 355 -3 355 23 -7 c13 -4
35 -14 50 -21 15 -8 32 -14 38 -14 6 0 10 44 10 124 l0 125 60 -27 59 -27 1
-208z m1400 133 c0 -66 4 -120 9 -120 5 0 30 9 56 20 26 11 49 20 51 20 3 0 3
-160 2 -355 l-3 -355 -30 -28 c-16 -15 -75 -48 -130 -72 -55 -24 -118 -51
-140 -61 -22 -9 -110 -47 -195 -84 -85 -36 -175 -75 -199 -86 -24 -11 -65 -29
-92 -39 l-49 -20 0 404 0 403 59 26 60 26 3 58 c3 58 3 58 48 80 70 34 70 34
70 -67 0 -49 2 -90 4 -90 2 0 29 11 60 25 l56 25 0 63 0 62 60 27 60 26 0
-139 c0 -76 3 -139 6 -139 3 0 30 11 60 25 l54 25 0 207 0 208 48 22 c75 34
72 37 72 -97z"/>
</g>
</svg>
